<svg xmlns="http://www.w3.org/2000/svg">
    <symbol id="arrow" viewBox="0 0 284.929 284.929">
      <g>
        <path d="M282.082,195.285L149.028,62.24c-1.901-1.903-4.088-2.856-6.562-2.856s-4.665,0.953-6.567,2.856L2.856,195.285
          C0.95,197.191,0,199.378,0,201.853c0,2.474,0.953,4.664,2.856,6.566l14.272,14.271c1.903,1.903,4.093,2.854,6.567,2.854
          c2.474,0,4.664-0.951,6.567-2.854l112.204-112.202l112.208,112.209c1.902,1.903,4.093,2.848,6.563,2.848
          c2.478,0,4.668-0.951,6.57-2.848l14.274-14.277c1.902-1.902,2.847-4.093,2.847-6.566
          C284.929,199.378,283.984,197.188,282.082,195.285z"/>
      </g>
    </symbol>
    <symbol id="compare" viewBox="0 0 121.805 121.805">
        <g>
          <g>
            <path d="M121.805,109.623V21.926c0-2.692-2.181-4.873-4.871-4.873H92.572c-2.691,0-4.871,2.181-4.871,4.873v87.697
              c0,2.693,2.18,4.873,4.871,4.873h24.361C119.624,114.496,121.805,112.316,121.805,109.623z"/>
            <path d="M46.287,114.496h26.797c2.691,0,4.872-2.18,4.872-4.873V12.181c0-2.692-2.181-4.872-4.872-4.872H46.287
              c-2.692,0-4.873,2.18-4.873,4.872v97.442C41.414,112.316,43.594,114.496,46.287,114.496z"/>
            <path d="M4.872,46.286C2.18,46.286,0,48.466,0,51.158v58.465c0,2.693,2.18,4.873,4.872,4.873h24.361
              c2.692,0,4.872-2.18,4.872-4.873V51.158c0-2.692-2.18-4.872-4.872-4.872H4.872z"/>
          </g>
        </g>
    </symbol>
    <symbol id="delete" viewBox="0 0 512 512">
      <ellipse style="fill:#E21B1B;" cx="256" cy="256" rx="256" ry="255.832"/>
      <g>
          <rect x="228.021" y="113.143" transform="matrix(0.7071 -0.7071 0.7071 0.7071 -106.0178 256.0051)" style="fill:#FFFFFF;" width="55.991" height="285.669"/>
        
          <rect x="113.164" y="227.968" transform="matrix(0.7071 -0.7071 0.7071 0.7071 -106.0134 255.9885)" style="fill:#FFFFFF;" width="285.669" height="55.991"/>
      </g>
    </symbol>
    <symbol id="pokeball" viewBox="0 0 512 512">
      <path style="fill:#303C42;" d="M256,0C114.844,0,0,114.844,0,256s114.844,256,256,256s256-114.844,256-256S397.156,0,256,0z"/>
      <path style="fill:#E53935;" d="M256,21.333c121.508,0,221.715,92.837,233.483,211.299c-17.362,3.845-61.466,11.878-127.904,12.608
        c-5.484-53.704-50.452-95.908-105.579-95.908s-100.095,42.203-105.579,95.908c-66.438-0.73-110.542-8.763-127.904-12.608
        C34.285,114.171,134.492,21.333,256,21.333z"/>
      <circle style="fill:#455A64;" cx="256" cy="256" r="85.333"/>
      <path style="fill:#FFFFFF;" d="M256,490.667C126.604,490.667,21.333,385.396,21.333,256c0-0.596,0.086-1.171,0.09-1.766
        c20.31,4.324,64.224,11.547,128.97,12.251c5.357,53.837,50.385,96.181,105.607,96.181s100.25-42.344,105.607-96.181
        c64.746-0.704,108.66-7.927,128.97-12.251c0.004,0.595,0.09,1.169,0.09,1.766C490.667,385.396,385.396,490.667,256,490.667z"/>
      <circle style="fill:#303C42;" cx="256" cy="256" r="64"/>
      <circle style="fill:#F2F2F2;" cx="256" cy="256" r="42.667"/>
      <path style="opacity:0.2;fill:#FFFFFF;enable-background:new    ;" d="M221.777,268.888c0-23.531,19.135-42.667,42.667-42.667
        c12.215,0,23.169,5.224,30.954,13.475c-6.418-15.456-21.643-26.363-39.398-26.363c-23.531,0-42.667,19.135-42.667,42.667
        c0,11.316,4.501,21.548,11.712,29.191C222.957,280.163,221.777,274.664,221.777,268.888z"/>
      <linearGradient id="SVGID_1_" gradientUnits="userSpaceOnUse" x1="-45.5784" y1="639.555" x2="-23.8278" y2="629.4138" gradientTransform="matrix(21.3333 0 0 -21.3333 996.3334 13791.667)">
        <stop  offset="0" style="stop-color:#FFFFFF;stop-opacity:0.2"/>
        <stop  offset="1" style="stop-color:#FFFFFF;stop-opacity:0"/>
      </linearGradient>
      <path style="fill:url(#SVGID_1_);" d="M256,0C114.844,0,0,114.844,0,256s114.844,256,256,256s256-114.844,256-256S397.156,0,256,0z"
        />
      <path style="opacity:0.1;enable-background:new    ;" d="M444.74,239.997c21.049-2.556,36.18-5.467,44.743-7.365
        c-5.801-58.395-33.158-110.496-73.897-148.387C436.051,119.059,448,159.449,448,202.667C448,215.4,446.702,227.809,444.74,239.997z"
        />
      <path style="opacity:0.1;enable-background:new    ;" d="M490.577,254.234c-10.544,2.245-27.586,5.257-50.467,7.747
        C413.73,362.698,322.204,437.333,213.333,437.333c-61.789,0-117.908-24.186-159.859-63.361
        C94.217,443.637,169.635,490.667,256,490.667c129.396,0,234.667-105.271,234.667-234.667
        C490.667,255.404,490.581,254.829,490.577,254.234z"/>
    </symbol>

    <symbol id="pen" viewBox="-15 -15 484.00019 484">
      <path d="m401.648438 18.234375c-24.394532-24.351563-63.898438-24.351563-88.292969 0l-22.101563 22.222656-235.269531 235.144531-.5.503907c-.121094.121093-.121094.25-.25.25-.25.375-.625.746093-.871094 1.121093 0 .125-.128906.125-.128906.25-.25.375-.371094.625-.625 1-.121094.125-.121094.246094-.246094.375-.125.375-.25.625-.378906 1 0 .121094-.121094.121094-.121094.25l-52.199219 156.96875c-1.53125 4.46875-.367187 9.417969 2.996094 12.734376 2.363282 2.332031 5.550782 3.636718 8.867188 3.625 1.355468-.023438 2.699218-.234376 3.996094-.625l156.847656-52.324219c.121094 0 .121094 0 .25-.121094.394531-.117187.773437-.285156 1.121094-.503906.097656-.011719.183593-.054688.253906-.121094.371094-.25.871094-.503906 1.246094-.753906.371093-.246094.75-.621094 1.125-.871094.125-.128906.246093-.128906.246093-.25.128907-.125.378907-.246094.503907-.5l257.371093-257.371094c24.351563-24.394531 24.351563-63.898437 0-88.289062zm-232.273438 353.148437-86.914062-86.910156 217.535156-217.535156 86.914062 86.910156zm-99.15625-63.808593 75.929688 75.925781-114.015626 37.960938zm347.664062-184.820313-13.238281 13.363282-86.917969-86.917969 13.367188-13.359375c14.621094-14.609375 38.320312-14.609375 52.945312 0l33.964844 33.964844c14.511719 14.6875 14.457032 38.332031-.121094 52.949218zm0 0"/>
    </symbol>
</svg>
